<?xml version="1.0" standalone="no"?>
<!DOCTYPE svg PUBLIC "-//W3C//DTD SVG 20010904//EN"
 "http://www.w3.org/TR/2001/REC-SVG-20010904/DTD/svg10.dtd">
<svg version="1.0" xmlns="http://www.w3.org/2000/svg"
 width="106.000000pt" height="106.000000pt" viewBox="0 0 106.000000 106.000000"
 preserveAspectRatio="xMidYMid meet">
<metadata>
Created by potrace 1.11, written by Peter Selinger 2001-2013
</metadata>
<g transform="translate(0.000000,106.000000) scale(0.100000,-0.100000)"
fill="#000000" stroke="none">
<path d="M0 530 l0 -530 530 0 530 0 0 530 0 530 -530 0 -530 0 0 -530z m820
357 c0 -8 -19 -19 -42 -26 -53 -16 -93 -57 -107 -109 -7 -24 -10 -103 -9 -189
l3 -148 78 -3 c59 -2 77 -6 77 -17 0 -12 -17 -15 -80 -15 l-80 0 0 -95 c0 -78
-3 -95 -15 -95 -13 0 -15 36 -15 268 0 158 4 283 11 305 16 58 65 107 124 122
28 8 51 14 53 14 1 1 2 -5 2 -12z m-397 -201 c9 -7 17 -20 17 -29 0 -14 -5
-13 -35 4 -85 51 -168 -37 -97 -103 15 -14 52 -41 82 -59 68 -40 98 -66 116
-101 46 -88 -23 -203 -129 -215 -77 -9 -157 32 -157 80 l0 21 16 -22 c53 -76
199 -65 241 18 34 66 3 121 -109 193 -46 30 -91 65 -101 80 -46 71 1 147 91
147 26 0 55 -7 65 -14z"/>
</g>
</svg>
